<mxfile host="65bd71144e">
    <diagram id="s3XKS49f7g5tn125unqJ" name="Page-1">
        <mxGraphModel dx="716" dy="375" grid="1" gridSize="10" guides="1" tooltips="1" connect="1" arrows="1" fold="1" page="1" pageScale="1" pageWidth="1200" pageHeight="600" math="0" shadow="0">
            <root>
                <mxCell id="0"/>
                <mxCell id="1" parent="0"/>
                <mxCell id="23" value="" style="fillColor=none;strokeColor=#364AFF;rounded=0;connectable=0;arcSize=8;dashed=1;strokeWidth=2;" parent="1" vertex="1">
                    <mxGeometry x="180" y="60" width="280" height="200" as="geometry"/>
                </mxCell>
                <mxCell id="12" value="" style="endArrow=none;dashed=1;entryX=0.5;entryY=1;entryDx=0;entryDy=0;" parent="1" target="5" edge="1">
                    <mxGeometry width="50" height="50" relative="1" as="geometry">
                        <mxPoint x="400" y="240" as="sourcePoint"/>
                        <mxPoint x="250" y="129.99999999999994" as="targetPoint"/>
                    </mxGeometry>
                </mxCell>
                <mxCell id="4" value="" style="endArrow=none;dashed=1;entryX=0.5;entryY=1;entryDx=0;entryDy=0;" parent="1" target="3" edge="1">
                    <mxGeometry width="50" height="50" relative="1" as="geometry">
                        <mxPoint x="240" y="240" as="sourcePoint"/>
                        <mxPoint x="470" y="170" as="targetPoint"/>
                    </mxGeometry>
                </mxCell>
                <mxCell id="2" value="" style="rounded=0;" parent="1" vertex="1">
                    <mxGeometry x="395" y="160" width="10" height="40" as="geometry"/>
                </mxCell>
                <mxCell id="3" value="Requestor" style="rounded=0;fontSize=9;" parent="1" vertex="1">
                    <mxGeometry x="200" y="80" width="80" height="40" as="geometry"/>
                </mxCell>
                <mxCell id="5" value="Incoice-Collector&#10;Container" style="rounded=0;fontSize=9;" parent="1" vertex="1">
                    <mxGeometry x="360" y="80" width="80" height="40" as="geometry"/>
                </mxCell>
                <mxCell id="6" value="Incoice-Collector&#10;Server" style="rounded=0;fontSize=9;" parent="1" vertex="1">
                    <mxGeometry x="520" y="80" width="80" height="40" as="geometry"/>
                </mxCell>
                <mxCell id="7" value="" style="endArrow=open;fontSize=9;endFill=0;" parent="1" edge="1">
                    <mxGeometry width="50" height="50" relative="1" as="geometry">
                        <mxPoint x="250" y="160" as="sourcePoint"/>
                        <mxPoint x="390" y="160" as="targetPoint"/>
                    </mxGeometry>
                </mxCell>
                <mxCell id="8" value="Request new collector" style="text;strokeColor=none;fillColor=none;align=center;verticalAlign=middle;rounded=0;fontSize=9;" parent="1" vertex="1">
                    <mxGeometry x="250" y="150" width="140" height="10" as="geometry"/>
                </mxCell>
                <mxCell id="9" value="Request new collector" style="text;strokeColor=none;fillColor=none;align=center;verticalAlign=middle;rounded=0;fontSize=9;" parent="1" vertex="1">
                    <mxGeometry x="410" y="170" width="140" height="10" as="geometry"/>
                </mxCell>
                <mxCell id="11" value="" style="endArrow=open;fontSize=9;endFill=0;" parent="1" edge="1">
                    <mxGeometry width="50" height="50" relative="1" as="geometry">
                        <mxPoint x="410" y="180" as="sourcePoint"/>
                        <mxPoint x="550" y="180" as="targetPoint"/>
                    </mxGeometry>
                </mxCell>
                <mxCell id="13" value="" style="endArrow=none;dashed=1;entryX=0.5;entryY=1;entryDx=0;entryDy=0;" parent="1" target="6" edge="1">
                    <mxGeometry width="50" height="50" relative="1" as="geometry">
                        <mxPoint x="560" y="240" as="sourcePoint"/>
                        <mxPoint x="410" y="129.99999999999994" as="targetPoint"/>
                    </mxGeometry>
                </mxCell>
                <mxCell id="15" value="" style="rounded=0;" parent="1" vertex="1">
                    <mxGeometry x="555" y="180" width="10" height="10" as="geometry"/>
                </mxCell>
                <mxCell id="18" value="" style="endArrow=open;fontSize=9;endFill=0;" parent="1" edge="1">
                    <mxGeometry width="50" height="50" relative="1" as="geometry">
                        <mxPoint x="390" y="200" as="sourcePoint"/>
                        <mxPoint x="250" y="200" as="targetPoint"/>
                    </mxGeometry>
                </mxCell>
                <mxCell id="19" value="Return" style="text;strokeColor=none;fillColor=none;align=center;verticalAlign=middle;rounded=0;fontSize=9;" parent="1" vertex="1">
                    <mxGeometry x="250" y="190" width="140" height="10" as="geometry"/>
                </mxCell>
                <mxCell id="22" value="" style="rounded=0;" parent="1" vertex="1">
                    <mxGeometry x="235" y="160" width="10" height="40" as="geometry"/>
                </mxCell>
                <mxCell id="24" value="User Infrastructure" style="text;strokeColor=none;align=center;fillColor=none;verticalAlign=middle;rounded=0;fontColor=#364AFF;" parent="1" vertex="1">
                    <mxGeometry x="180" y="40" width="280" height="20" as="geometry"/>
                </mxCell>
            </root>
        </mxGraphModel>
    </diagram>
</mxfile>